<svg width="57" height="57" viewBox="0 0 57 57" fill="none" xmlns="http://www.w3.org/2000/svg">
<g clip-path="url(#clip0)">
<path d="M56.5 28.5007V28.5C56.5 13.0362 43.9638 0.5 28.5 0.5C13.0363 0.5 0.500144 13.0361 0.5 28.4997C0.5 28.4998 0.5 28.4999 0.5 28.5M56.5 28.5007L16.5359 54.3743C11.5998 52.0865 7.42055 48.4353 4.4908 43.8511C1.56105 39.2668 0.00289777 33.9405 0 28.5H0.5M56.5 28.5007C56.505 32.2903 55.738 36.0413 54.2458 39.5247C54.2456 39.5252 54.2454 39.5256 54.2452 39.526L54.1527 39.7393C54.1525 39.7397 54.1523 39.74 54.1521 39.7404C51.6271 45.4841 47.249 50.2153 41.718 53.1775C36.1869 56.1397 29.8224 57.1617 23.642 56.0802C23.4734 56.0503 23.3051 56.0193 23.1372 55.9872C21.4055 55.6515 19.7099 55.1515 18.0731 54.4938C17.8071 54.3869 17.5431 54.2762 17.2809 54.1615L17.2801 54.1612C17.1015 54.0835 16.9235 54.0035 16.7476 53.9213L16.7462 53.9206C11.8965 51.673 7.79052 48.0858 4.91211 43.5818C2.03374 39.0779 0.502898 33.8451 0.5 28.5M56.5 28.5007L0.5 28.5" fill="white" stroke="#333333"/>
<path opacity="0.2" d="M23.5547 56.5725C23.3836 56.5421 23.2127 56.5107 23.0421 56.4781C22.9308 53.2478 22.5488 46.6177 21.2461 39.674C20.5336 35.8737 19.5445 31.9782 18.1726 28.4958C17.7026 27.2908 17.1658 26.113 16.5646 24.9678C15.1784 22.3497 13.4971 20.1456 11.4583 18.6523L11.7584 18.2425C13.4541 19.4854 14.978 21.2302 16.3302 23.4771C16.7358 24.1499 17.1254 24.8678 17.4989 25.6306C17.8994 26.4468 18.2814 27.3133 18.6448 28.2302C18.8767 28.8137 19.1007 29.4174 19.3168 30.0414C20.2578 32.7505 21.0578 35.8417 21.7166 39.3148C21.8624 40.0821 22.0013 40.8683 22.1331 41.6732C23.1542 47.9103 23.462 53.677 23.5547 56.5725Z" fill="black"/>
<path opacity="0.2" d="M17.0806 54.6197C16.8984 54.5404 16.7163 54.4586 16.5358 54.3743C16.3596 52.4603 16.0358 50.0858 15.4439 47.832C15.1847 46.8197 14.8518 45.8277 14.4481 44.8639C13.7727 43.2829 12.8983 41.9389 11.7676 41.11L12.0678 40.701C13.2516 41.5679 14.1648 42.938 14.8705 44.541C15.6657 46.3471 16.196 48.4492 16.5493 50.4577C16.8116 51.9493 16.9768 53.3903 17.0806 54.6197Z" fill="black"/>
<path opacity="0.2" d="M8.62275 18.6405C10.0239 18.6405 11.1598 17.5047 11.1598 16.1035C11.1598 14.7023 10.0239 13.5664 8.62275 13.5664C7.22157 13.5664 6.08569 14.7023 6.08569 16.1035C6.08569 17.5047 7.22157 18.6405 8.62275 18.6405Z" fill="black"/>
<path opacity="0.2" d="M9.43964 40.4801C10.8408 40.4801 11.9767 39.3442 11.9767 37.943C11.9767 36.5418 10.8408 35.4059 9.43964 35.4059C8.03847 35.4059 6.90259 36.5418 6.90259 37.943C6.90259 39.3442 8.03847 40.4801 9.43964 40.4801Z" fill="black"/>
<path opacity="0.2" d="M18.6948 20.365C18.1568 23.4002 19.3444 26.1486 19.3444 26.1486C19.3444 26.1486 21.4043 23.9759 21.9423 20.9406C22.4803 17.9053 21.2927 15.1569 21.2927 15.1569C21.2927 15.1569 19.2328 17.3297 18.6948 20.365Z" fill="black"/>
<path opacity="0.2" d="M10.2631 27.5701C13.1582 28.6287 16.0674 27.9493 16.0674 27.9493C16.0674 27.9493 14.2826 25.5536 11.3875 24.495C8.49243 23.4363 5.58325 24.1157 5.58325 24.1157C5.58325 24.1157 7.36797 26.5114 10.2631 27.5701Z" fill="black"/>
<path opacity="0.2" d="M9.77242 46.9097C11.8017 47.6518 13.8436 47.1677 13.8436 47.1677C13.8436 47.1677 12.5956 45.4806 10.5663 44.7386C8.53709 43.9966 6.49512 44.4806 6.49512 44.4806C6.49512 44.4806 7.74318 46.1677 9.77242 46.9097Z" fill="black"/>
<path d="M28.4414 34.8112C34.5777 34.8112 39.5522 29.8368 39.5522 23.7004C39.5522 17.5641 34.5777 12.5896 28.4414 12.5896C22.305 12.5896 17.3306 17.5641 17.3306 23.7004C17.3306 29.8368 22.305 34.8112 28.4414 34.8112Z" fill="#D0CDE1"/>
<path d="M24.1013 32.2071C24.1013 32.2071 25.4902 38.8042 25.4902 39.4986C25.4902 40.193 32.0872 43.3179 32.0872 43.3179L37.9898 42.2763L40.0731 36.0265C40.0731 36.0265 36.601 30.8183 36.601 28.735L24.1013 32.2071Z" fill="#D0CDE1"/>
<path d="M54.705 39.7229L54.6105 39.9405C52.0405 45.7871 47.5842 50.6031 41.9542 53.6183C36.3242 56.6334 29.8457 57.6736 23.5548 56.5725C23.3836 56.5421 23.2127 56.5106 23.0421 56.478C21.2793 56.1363 19.553 55.6272 17.8868 54.9578C17.6162 54.849 17.3475 54.7363 17.0807 54.6196C16.8986 54.5404 16.7165 54.4586 16.536 54.3743C14.9005 53.6165 13.3406 52.7052 11.8774 51.6524L10.5603 47.8319L11.3006 47.267L12.8234 46.1042L14.4483 44.8639L14.8707 44.5409L21.2461 39.674L21.7166 39.3148L25.0304 36.7852L25.0312 36.7844C25.0312 36.7844 28.6148 42.6235 33.8232 40.8874C39.0316 39.1512 38.9178 34.173 38.9178 34.173L54.705 39.7229Z" fill="#2F2E41"/>
<path d="M18.8062 14.7488C18.8062 14.7488 22.3338 7.10563 29.0951 8.86945C35.8564 10.6333 39.678 13.279 39.972 15.9247C40.266 18.5705 39.825 22.539 39.825 22.539C39.825 22.539 39.0901 17.1006 34.3866 18.2765C29.6831 19.4524 22.3338 18.5705 22.3338 18.5705L21.158 29.1534C21.158 29.1534 19.8351 27.2426 18.3653 28.4184C16.8954 29.5943 14.1027 17.1006 18.8062 14.7488Z" fill="#2F2E41"/>
<path d="M17.8867 54.9578C17.6161 54.849 17.3474 54.7363 17.0806 54.6197C16.8985 54.5404 16.7164 54.4586 16.5359 54.3743C13.8309 53.1199 11.3389 51.4499 9.15039 49.4247C9.92529 48.3691 10.5602 47.8319 10.5602 47.8319H15.7686L16.5494 50.4576L17.8867 54.9578Z" fill="#2F2E41"/>
<path d="M50.1423 39.1512L54.6104 39.9405C53.4147 42.6644 51.7998 45.1843 49.8245 47.4087L50.1423 39.1512Z" fill="#2F2E41"/>
</g>
<defs>
<clipPath id="clip0">
<rect width="57" height="57" fill="white"/>
</clipPath>
</defs>
</svg>
